<svg xmlns="http://www.w3.org/2000/svg" xmlns:xlink="http://www.w3.org/1999/xlink" width="58" height="50" viewBox="0 0 58 50">
  <defs>
    <filter id="Pfad_3" x="16" y="2" width="42" height="23" filterUnits="userSpaceOnUse">
      <feOffset dy="3" input="SourceAlpha"/>
      <feGaussianBlur stdDeviation="3" result="blur"/>
      <feFlood/>
      <feComposite operator="in" in2="blur"/>
      <feComposite in="SourceGraphic"/>
    </filter>
    <filter id="Pfad_2" x="0" y="0" width="26" height="26" filterUnits="userSpaceOnUse">
      <feOffset dy="3" input="SourceAlpha"/>
      <feGaussianBlur stdDeviation="3" result="blur-2"/>
      <feFlood/>
      <feComposite operator="in" in2="blur-2"/>
      <feComposite in="SourceGraphic"/>
    </filter>
    <filter id="Pfad_5" x="0" y="12" width="26" height="26" filterUnits="userSpaceOnUse">
      <feOffset dy="3" input="SourceAlpha"/>
      <feGaussianBlur stdDeviation="3" result="blur-3"/>
      <feFlood/>
      <feComposite operator="in" in2="blur-3"/>
      <feComposite in="SourceGraphic"/>
    </filter>
    <filter id="Pfad_7" x="0" y="24" width="26" height="26" filterUnits="userSpaceOnUse">
      <feOffset dy="3" input="SourceAlpha"/>
      <feGaussianBlur stdDeviation="3" result="blur-4"/>
      <feFlood/>
      <feComposite operator="in" in2="blur-4"/>
      <feComposite in="SourceGraphic"/>
    </filter>
    <filter id="Pfad_4" x="16" y="14" width="42" height="23" filterUnits="userSpaceOnUse">
      <feOffset dy="3" input="SourceAlpha"/>
      <feGaussianBlur stdDeviation="3" result="blur-5"/>
      <feFlood/>
      <feComposite operator="in" in2="blur-5"/>
      <feComposite in="SourceGraphic"/>
    </filter>
    <filter id="Pfad_6" x="16" y="26" width="42" height="23" filterUnits="userSpaceOnUse">
      <feOffset dy="3" input="SourceAlpha"/>
      <feGaussianBlur stdDeviation="3" result="blur-6"/>
      <feFlood/>
      <feComposite operator="in" in2="blur-6"/>
      <feComposite in="SourceGraphic"/>
    </filter>
  </defs>
  <g id="Button_-_List_-_Active" data-name="Button - List - Active" transform="translate(9 6)">
    <g transform="matrix(1, 0, 0, 1, -9, -6)" filter="url(#Pfad_3)">
      <g id="Pfad_3-2" data-name="Pfad 3" transform="translate(25 8)" fill="#fff" stroke-linecap="round">
        <path d="M 21.5 4.5 L 2.5 4.5 C 1.397199988365173 4.5 0.5 3.602799892425537 0.5 2.5 C 0.5 1.397199988365173 1.397199988365173 0.5 2.5 0.5 L 21.5 0.5 C 22.6028003692627 0.5 23.5 1.397199988365173 23.5 2.5 C 23.5 3.602799892425537 22.6028003692627 4.5 21.5 4.5 Z" stroke="none"/>
        <path d="M 2.5 1 C 1.67289924621582 1 1 1.672899961471558 1 2.5 C 1 3.327100038528442 1.67289924621582 4 2.5 4 L 21.5 4 C 22.32710075378418 4 23 3.327100038528442 23 2.5 C 23 1.672899961471558 22.32710075378418 1 21.5 1 L 2.5 1 M 2.5 0 L 21.5 0 C 22.88071060180664 0 24 1.119290113449097 24 2.5 C 24 3.880710124969482 22.88071060180664 5 21.5 5 L 2.5 5 C 1.119289398193359 5 0 3.880710124969482 0 2.5 C 0 1.119290113449097 1.119289398193359 0 2.5 0 Z" stroke="none" fill="#fff"/>
      </g>
    </g>
    <g transform="matrix(1, 0, 0, 1, -9, -6)" filter="url(#Pfad_2)">
      <g id="Pfad_2-2" data-name="Pfad 2" transform="translate(9 6)" fill="#fff" stroke-linecap="round">
        <path d="M 6 7.5 L 2 7.5 C 1.172899961471558 7.5 0.5 6.827099800109863 0.5 6 L 0.5 2 C 0.5 1.172899961471558 1.172899961471558 0.5 2 0.5 L 6 0.5 C 6.827099800109863 0.5 7.5 1.172899961471558 7.5 2 L 7.5 6 C 7.5 6.827099800109863 6.827099800109863 7.5 6 7.5 Z" stroke="none"/>
        <path d="M 2 1 C 1.448599815368652 1 1 1.448599815368652 1 2 L 1 6 C 1 6.551400184631348 1.448599815368652 7 2 7 L 6 7 C 6.551400184631348 7 7 6.551400184631348 7 6 L 7 2 C 7 1.448599815368652 6.551400184631348 1 6 1 L 2 1 M 2 0 L 6 0 C 7.104569911956787 0 8 0.8954300880432129 8 2 L 8 6 C 8 7.104569911956787 7.104569911956787 8 6 8 L 2 8 C 0.8954300880432129 8 0 7.104569911956787 0 6 L 0 2 C 0 0.8954300880432129 0.8954300880432129 0 2 0 Z" stroke="none" fill="#fff"/>
      </g>
    </g>
    <g transform="matrix(1, 0, 0, 1, -9, -6)" filter="url(#Pfad_5)">
      <g id="Pfad_5-2" data-name="Pfad 5" transform="translate(9 18)" fill="#fff" stroke-linecap="round">
        <path d="M 6 7.5 L 2 7.5 C 1.172899961471558 7.5 0.5 6.827099800109863 0.5 6 L 0.5 2 C 0.5 1.172899961471558 1.172899961471558 0.5 2 0.5 L 6 0.5 C 6.827099800109863 0.5 7.5 1.172899961471558 7.5 2 L 7.5 6 C 7.5 6.827099800109863 6.827099800109863 7.5 6 7.5 Z" stroke="none"/>
        <path d="M 2 1 C 1.448599815368652 1 1 1.448599815368652 1 2 L 1 6 C 1 6.551400184631348 1.448599815368652 7 2 7 L 6 7 C 6.551400184631348 7 7 6.551400184631348 7 6 L 7 2 C 7 1.448599815368652 6.551400184631348 1 6 1 L 2 1 M 2 0 L 6 0 C 7.104569911956787 0 8 0.8954300880432129 8 2 L 8 6 C 8 7.104569911956787 7.104569911956787 8 6 8 L 2 8 C 0.8954300880432129 8 0 7.104569911956787 0 6 L 0 2 C 0 0.8954300880432129 0.8954300880432129 0 2 0 Z" stroke="none" fill="#fff"/>
      </g>
    </g>
    <g transform="matrix(1, 0, 0, 1, -9, -6)" filter="url(#Pfad_7)">
      <g id="Pfad_7-2" data-name="Pfad 7" transform="translate(9 30)" fill="#fff" stroke-linecap="round">
        <path d="M 6 7.5 L 2 7.5 C 1.172899961471558 7.5 0.5 6.827099800109863 0.5 6 L 0.5 2 C 0.5 1.172899961471558 1.172899961471558 0.5 2 0.5 L 6 0.5 C 6.827099800109863 0.5 7.5 1.172899961471558 7.5 2 L 7.5 6 C 7.5 6.827099800109863 6.827099800109863 7.5 6 7.5 Z" stroke="none"/>
        <path d="M 2 1 C 1.448599815368652 1 1 1.448599815368652 1 2 L 1 6 C 1 6.551400184631348 1.448599815368652 7 2 7 L 6 7 C 6.551400184631348 7 7 6.551400184631348 7 6 L 7 2 C 7 1.448599815368652 6.551400184631348 1 6 1 L 2 1 M 2 0 L 6 0 C 7.104569911956787 0 8 0.8954300880432129 8 2 L 8 6 C 8 7.104569911956787 7.104569911956787 8 6 8 L 2 8 C 0.8954300880432129 8 0 7.104569911956787 0 6 L 0 2 C 0 0.8954300880432129 0.8954300880432129 0 2 0 Z" stroke="none" fill="#fff"/>
      </g>
    </g>
    <g transform="matrix(1, 0, 0, 1, -9, -6)" filter="url(#Pfad_4)">
      <g id="Pfad_4-2" data-name="Pfad 4" transform="translate(25 20)" fill="#fff" stroke-linecap="round">
        <path d="M 21.5 4.5 L 2.5 4.5 C 1.397199988365173 4.5 0.5 3.602799892425537 0.5 2.5 C 0.5 1.397199988365173 1.397199988365173 0.5 2.5 0.5 L 21.5 0.5 C 22.6028003692627 0.5 23.5 1.397199988365173 23.5 2.5 C 23.5 3.602799892425537 22.6028003692627 4.5 21.5 4.5 Z" stroke="none"/>
        <path d="M 2.5 1 C 1.67289924621582 1 1 1.672899961471558 1 2.5 C 1 3.327100038528442 1.67289924621582 4 2.5 4 L 21.5 4 C 22.32710075378418 4 23 3.327100038528442 23 2.5 C 23 1.672899961471558 22.32710075378418 1 21.5 1 L 2.5 1 M 2.5 0 L 21.5 0 C 22.88071060180664 0 24 1.119290113449097 24 2.5 C 24 3.880710124969482 22.88071060180664 5 21.5 5 L 2.5 5 C 1.119289398193359 5 0 3.880710124969482 0 2.5 C 0 1.119290113449097 1.119289398193359 0 2.5 0 Z" stroke="none" fill="#fff"/>
      </g>
    </g>
    <g transform="matrix(1, 0, 0, 1, -9, -6)" filter="url(#Pfad_6)">
      <g id="Pfad_6-2" data-name="Pfad 6" transform="translate(25 32)" fill="#fff" stroke-linecap="round">
        <path d="M 21.5 4.5 L 2.5 4.5 C 1.397199988365173 4.5 0.5 3.602799892425537 0.5 2.5 C 0.5 1.397199988365173 1.397199988365173 0.5 2.5 0.5 L 21.5 0.5 C 22.6028003692627 0.5 23.5 1.397199988365173 23.5 2.5 C 23.5 3.602799892425537 22.6028003692627 4.5 21.5 4.5 Z" stroke="none"/>
        <path d="M 2.5 1 C 1.67289924621582 1 1 1.672899961471558 1 2.5 C 1 3.327100038528442 1.67289924621582 4 2.5 4 L 21.5 4 C 22.32710075378418 4 23 3.327100038528442 23 2.5 C 23 1.672899961471558 22.32710075378418 1 21.5 1 L 2.5 1 M 2.5 0 L 21.5 0 C 22.88071060180664 0 24 1.119290113449097 24 2.5 C 24 3.880710124969482 22.88071060180664 5 21.5 5 L 2.5 5 C 1.119289398193359 5 0 3.880710124969482 0 2.5 C 0 1.119290113449097 1.119289398193359 0 2.5 0 Z" stroke="none" fill="#fff"/>
      </g>
    </g>
  </g>
</svg>
