<svg id="svg-list" xmlns="http://www.w3.org/2000/svg" xmlns:xlink="http://www.w3.org/1999/xlink" width="54" height="47" viewBox="0 0 54 47">
  <defs>
    <filter id="Pfad_3" x="12" y="2" width="42" height="23" filterUnits="userSpaceOnUse">
      <feOffset dy="3" input="SourceAlpha"/>
      <feGaussianBlur stdDeviation="3" result="blur"/>
      <feFlood/>
      <feComposite operator="in" in2="blur"/>
      <feComposite in="SourceGraphic"/>
    </filter>
    <filter id="Pfad_2" x="0" y="0" width="26" height="26" filterUnits="userSpaceOnUse">
      <feOffset dy="3" input="SourceAlpha"/>
      <feGaussianBlur stdDeviation="3" result="blur-2"/>
      <feFlood/>
      <feComposite operator="in" in2="blur-2"/>
      <feComposite in="SourceGraphic"/>
    </filter>
    <filter id="Pfad_5" x="0" y="10.5" width="26" height="26" filterUnits="userSpaceOnUse">
      <feOffset dy="3" input="SourceAlpha"/>
      <feGaussianBlur stdDeviation="3" result="blur-3"/>
      <feFlood/>
      <feComposite operator="in" in2="blur-3"/>
      <feComposite in="SourceGraphic"/>
    </filter>
    <filter id="Pfad_7" x="0" y="21" width="26" height="26" filterUnits="userSpaceOnUse">
      <feOffset dy="3" input="SourceAlpha"/>
      <feGaussianBlur stdDeviation="3" result="blur-4"/>
      <feFlood/>
      <feComposite operator="in" in2="blur-4"/>
      <feComposite in="SourceGraphic"/>
    </filter>
    <filter id="Pfad_4" x="12" y="12.444" width="42" height="23" filterUnits="userSpaceOnUse">
      <feOffset dy="3" input="SourceAlpha"/>
      <feGaussianBlur stdDeviation="3" result="blur-5"/>
      <feFlood/>
      <feComposite operator="in" in2="blur-5"/>
      <feComposite in="SourceGraphic"/>
    </filter>
    <filter id="Pfad_6" x="12" y="23" width="42" height="23" filterUnits="userSpaceOnUse">
      <feOffset dy="3" input="SourceAlpha"/>
      <feGaussianBlur stdDeviation="3" result="blur-6"/>
      <feFlood/>
      <feComposite operator="in" in2="blur-6"/>
      <feComposite in="SourceGraphic"/>
    </filter>
  </defs>
  <g id="Gruppe_4" data-name="Gruppe 4" transform="translate(161 -818)">
    <g id="Button_-_List_-_Not_Active" data-name="Button - List - Not Active" transform="translate(-152 824)">
      <g transform="matrix(1, 0, 0, 1, -9, -6)" filter="url(#Pfad_3)">
        <path id="Pfad_3-2" data-name="Pfad 3" d="M2.5,0h19a2.5,2.5,0,0,1,0,5H2.5a2.5,2.5,0,0,1,0-5Z" transform="translate(21 8)" fill="rgba(108,108,110,0.65)"/>
      </g>
      <g transform="matrix(1, 0, 0, 1, -9, -6)" filter="url(#Pfad_2)">
        <path id="Pfad_2-2" data-name="Pfad 2" d="M2,0H6A2,2,0,0,1,8,2V6A2,2,0,0,1,6,8H2A2,2,0,0,1,0,6V2A2,2,0,0,1,2,0Z" transform="translate(9 6)" fill="rgba(108,108,110,0.65)"/>
      </g>
      <g transform="matrix(1, 0, 0, 1, -9, -6)" filter="url(#Pfad_5)">
        <path id="Pfad_5-2" data-name="Pfad 5" d="M2,0H6A2,2,0,0,1,8,2V6A2,2,0,0,1,6,8H2A2,2,0,0,1,0,6V2A2,2,0,0,1,2,0Z" transform="translate(9 16.5)" fill="rgba(108,108,110,0.65)"/>
      </g>
      <g transform="matrix(1, 0, 0, 1, -9, -6)" filter="url(#Pfad_7)">
        <path id="Pfad_7-2" data-name="Pfad 7" d="M2,0H6A2,2,0,0,1,8,2V6A2,2,0,0,1,6,8H2A2,2,0,0,1,0,6V2A2,2,0,0,1,2,0Z" transform="translate(9 27)" fill="rgba(108,108,110,0.65)"/>
      </g>
      <g transform="matrix(1, 0, 0, 1, -9, -6)" filter="url(#Pfad_4)">
        <path id="Pfad_4-2" data-name="Pfad 4" d="M2.5,0h19a2.5,2.5,0,0,1,0,5H2.5a2.5,2.5,0,0,1,0-5Z" transform="translate(21 18.44)" fill="rgba(108,108,110,0.65)"/>
      </g>
      <g transform="matrix(1, 0, 0, 1, -9, -6)" filter="url(#Pfad_6)">
        <path id="Pfad_6-2" data-name="Pfad 6" d="M2.5,0h19a2.5,2.5,0,0,1,0,5H2.5a2.5,2.5,0,0,1,0-5Z" transform="translate(21 29)" fill="rgba(108,108,110,0.65)"/>
      </g>
    </g>
  </g>
</svg>
