<svg xmlns="http://www.w3.org/2000/svg" xmlns:xlink="http://www.w3.org/1999/xlink" width="49.145" height="49.248" viewBox="0 0 49.145 49.248">
  <defs>
    <filter id="settings-svgrepo-com" x="0" y="0" width="49.145" height="49.248" filterUnits="userSpaceOnUse">
      <feOffset dy="3" input="SourceAlpha"/>
      <feGaussianBlur stdDeviation="3" result="blur"/>
      <feFlood/>
      <feComposite operator="in" in2="blur"/>
      <feComposite in="SourceGraphic"/>
    </filter>
  </defs>
  <g id="Button_-_Settings_-_Active" data-name="Button - Settings - Active" transform="translate(9.5 6.5)">
    <g transform="matrix(1, 0, 0, 1, -9.5, -6.5)" filter="url(#settings-svgrepo-com)">
      <path id="settings-svgrepo-com-2" data-name="settings-svgrepo-com" d="M29.187,12.037h-1.87a12.661,12.661,0,0,0-1.251-3.01l1.377-1.375a1.542,1.542,0,0,0,0-2.181L25.31,3.339a1.543,1.543,0,0,0-2.182,0L21.737,4.7a11.806,11.806,0,0,0-3.129-1.3V1.543A1.5,1.5,0,0,0,17.118,0H14.1a1.561,1.561,0,0,0-1.564,1.543V3.407A12.452,12.452,0,0,0,9.56,4.635L8.285,3.355a1.54,1.54,0,0,0-2.18,0L3.973,5.489a1.543,1.543,0,0,0,0,2.182L5.22,8.913A11.743,11.743,0,0,0,3.9,12.037H2.078A1.58,1.58,0,0,0,.5,13.59v3.017a1.537,1.537,0,0,0,1.578,1.5H3.89a11.889,11.889,0,0,0,1.3,3.147L3.958,22.5a1.55,1.55,0,0,0,0,2.188l2.134,2.136a1.542,1.542,0,0,0,2.182,0L9.51,25.578a11.2,11.2,0,0,0,3.027,1.257v1.818A1.605,1.605,0,0,0,14.1,30.248h3.017a1.543,1.543,0,0,0,1.489-1.595V26.835a12.072,12.072,0,0,0,3.178-1.325l1.344,1.331a1.555,1.555,0,0,0,2.193,0l2.135-2.134a1.543,1.543,0,0,0,0-2.182L26.1,21.14a11.258,11.258,0,0,0,1.234-3.032h1.858a1.436,1.436,0,0,0,1.458-1.5V13.59A1.48,1.48,0,0,0,29.187,12.037ZM20.1,15.121A4.491,4.491,0,1,1,15.61,10.63,4.5,4.5,0,0,1,20.1,15.121Z" transform="translate(9 6.5)" fill="#fff" stroke="#fff" stroke-width="1"/>
    </g>
  </g>
</svg>
