<svg xmlns="http://www.w3.org/2000/svg" xmlns:xlink="http://www.w3.org/1999/xlink" width="42.001" height="42" viewBox="0 0 42.001 42">
  <defs>
    <filter id="Pfad_20" x="0" y="0" width="42.001" height="42" filterUnits="userSpaceOnUse">
      <feOffset dy="3" input="SourceAlpha"/>
      <feGaussianBlur stdDeviation="3" result="blur"/>
      <feFlood/>
      <feComposite operator="in" in2="blur"/>
      <feComposite in="SourceGraphic"/>
    </filter>
  </defs>
  <g id="Button_-_Info" data-name="Button - Info" transform="translate(9 6)">
    <g transform="matrix(1, 0, 0, 1, -9, -6)" filter="url(#Pfad_20)">
      <path id="Pfad_20-2" data-name="Pfad 20" d="M12,.008a12,12,0,1,0,12,12A12.014,12.014,0,0,0,12,.008Zm0,21.818a9.949,9.949,0,0,1-8.158-4.36,9.527,9.527,0,0,1-1.661-5.459A9.819,9.819,0,1,1,12,21.826Z" transform="translate(9 5.99)" fill="#fff"/>
    </g>
    <path id="Pfad_21" data-name="Pfad 21" d="M151.18,130.008a1.085,1.085,0,0,0-1.18.953v6.35a1.207,1.207,0,0,0,2.36,0v-6.35A1.085,1.085,0,0,0,151.18,130.008Z" transform="translate(-139.179 -119.264)" fill="#fff"/>
    <path id="Pfad_22" data-name="Pfad 22" d="M151.694,70.011a1.693,1.693,0,1,0,1.2.5A1.708,1.708,0,0,0,151.694,70.011Z" transform="translate(-139.693 -65.008)" fill="#fff"/>
  </g>
</svg>
