<svg id="shopping-cart" xmlns="http://www.w3.org/2000/svg" width="23.336" height="22.769" viewBox="0 0 23.336 22.769">
  <path id="Pfad_25" data-name="Pfad 25" d="M23.034,0H20.068a1.994,1.994,0,0,0-1.892,1.437L17.05,5.663H1.73A.977.977,0,0,0,.752,6.747l.8,8.1a1.159,1.159,0,0,0,1.116,1.026H15.487a1.329,1.329,0,0,0,1.219-.947l1.5-5.541a.965.965,0,0,0,.1-.23L20.176,2.1h2.858a1.049,1.049,0,1,0,0-2.1Z" transform="translate(-0.746)" fill="#fff"/>
  <path id="Pfad_26" data-name="Pfad 26" d="M17.288,257H5.077a.907.907,0,1,0,0,1.814h.531a2.038,2.038,0,1,0,3.675,0h4.034a2.038,2.038,0,1,0,3.675,0h.3a.907.907,0,1,0,0-1.814Z" transform="translate(-2.834 -238.964)" fill="#fff"/>
</svg>
